<svg xmlns="http://www.w3.org/2000/svg" viewBox="0 0 210.15 228.97"><defs><style>.cls-1{fill:#fff;}</style></defs><g id="Layer_2" data-name="Layer 2"><g id="Layer_1-2" data-name="Layer 1"><path class="cls-1" d="M0,5.89V36.08A5.9,5.9,0,0,0,5.89,42H203.06a5.9,5.9,0,0,0,5.89-5.9V5.89A5.89,5.89,0,0,0,203.06,0H5.89A5.89,5.89,0,0,0,0,5.89Z"/><path class="cls-1" d="M0,72.92v30.19A5.89,5.89,0,0,0,5.89,109H63a5.89,5.89,0,0,1,5.89,5.82l1.3,108.33A5.9,5.9,0,0,0,76.06,229h128.2a5.89,5.89,0,0,0,5.88-6.12L209,192.53V72.92a5.9,5.9,0,0,0-5.89-5.9H5.89A5.9,5.9,0,0,0,0,72.92ZM110.78,186.64V114.89a5.89,5.89,0,0,1,5.89-5.89H164a5.89,5.89,0,0,1,5.89,5.89v71.75a5.89,5.89,0,0,1-5.89,5.89H116.67A5.89,5.89,0,0,1,110.78,186.64Z"/></g></g></svg>