<svg xmlns="http://www.w3.org/2000/svg" viewBox="0 0 891.69 156.47"><defs><style>.cls-1,.cls-2{fill:#fff;}.cls-2{font-size:88.59px;font-family:Poppins-Bold, Poppins;font-weight:700;}</style></defs><g id="Layer_2" data-name="Layer 2"><g id="Layer_1-2" data-name="Layer 1"><path class="cls-1" d="M0,3.13V19.19a3.14,3.14,0,0,0,3.13,3.14H108a3.14,3.14,0,0,0,3.13-3.14V3.13A3.13,3.13,0,0,0,108,0H3.13A3.13,3.13,0,0,0,0,3.13Z"/><path class="cls-1" d="M0,38.78V54.84A3.14,3.14,0,0,0,3.13,58H33.5a3.13,3.13,0,0,1,3.13,3.09l.69,57.62a3.14,3.14,0,0,0,3.14,3.1h68.18a3.14,3.14,0,0,0,3.14-3.26l-.64-16.12V38.78A3.13,3.13,0,0,0,108,35.65H3.13A3.13,3.13,0,0,0,0,38.78ZM58.92,99.27V61.11A3.14,3.14,0,0,1,62.06,58H87.21a3.13,3.13,0,0,1,3.13,3.13V99.27a3.14,3.14,0,0,1-3.13,3.14H62.06A3.15,3.15,0,0,1,58.92,99.27Z"/><text class="cls-2" transform="translate(139.77 102.78)">Timtech Designz</text></g></g></svg>